<svg xmlns="http://www.w3.org/2000/svg" version="1.1" xmlns:xlink="http://www.w3.org/1999/xlink" xmlns:svgjs="http://svgjs.dev/svgjs" width="1000" height="1000" viewBox="0 0 1000 1000"><rect width="1000" height="1000" fill="#ffffff"></rect><g transform="matrix(0.7,0,0,0.7,149.57575757575756,373.42788824450065)"><svg viewBox="0 0 396 143" data-background-color="#eb5b7c" preserveAspectRatio="xMidYMid meet" height="361" width="1000" xmlns="http://www.w3.org/2000/svg" xmlns:xlink="http://www.w3.org/1999/xlink"><defs></defs><g id="tight-bounds" transform="matrix(1,0,0,1,0.2400000000000091,0.12569046710095222)"><svg viewBox="0 0 395.52 142.7486190657981" height="142.7486190657981" width="395.52"><g><svg viewBox="0 0 397.4976 143.4623621611271" height="142.7486190657981" width="395.52"><g><svg viewBox="0 0 397.4976 143.4623621611271" height="143.4623621611271" width="397.4976"><g><svg viewBox="0 0 397.4976 143.4623621611271" height="143.4623621611271" width="397.4976"><g><rect width="397.4976" height="8.521178820728114" x="0" y="104.52773966708551" fill="#000000" opacity="1" stroke-width="0" stroke="transparent" fill-opacity="1" class="rect-si-0" data-fill-palette-color="primary" rx="1%" id="si-0" data-palette-color="#fbeaab"></rect></g><g transform="matrix(1,0,0,1,0.9887999999999693,0)"><svg viewBox="0 0 395.52000000000004 94.48970178926443" height="94.48970178926443" width="395.52000000000004"><g transform="matrix(1,0,0,1,0,0)"><svg width="395.52000000000004" viewBox="4.05 -35.3 150.89 36.05" height="94.48970178926443" data-palette-color="#fbeaab"><path d="M4.05-34.55L24.1-34.55 23.4-29.65 10.65-29.65 10.65-20 21.75-20 21.75-15.1 10.65-15.1 10.65-4.95 24.3-4.95 24.3 0 4.05 0 4.05-34.55ZM49.9-7Q49.9-5.45 50.37-4.73 50.85-4 51.9-3.6L51.9-3.6 50.55 0.65Q48.3 0.45 46.87-0.45 45.45-1.35 44.7-3.2L44.7-3.2Q43.35-1.2 41.32-0.23 39.3 0.75 36.8 0.75L36.8 0.75Q32.85 0.75 30.55-1.5 28.25-3.75 28.25-7.4L28.25-7.4Q28.25-11.7 31.37-13.98 34.5-16.25 40.3-16.25L40.3-16.25 43.6-16.25 43.6-17.75Q43.6-20.3 42.42-21.33 41.25-22.35 38.65-22.35L38.65-22.35Q35.75-22.35 31.65-20.95L31.65-20.95 30.15-25.3Q35.1-27.2 39.75-27.2L39.75-27.2Q49.9-27.2 49.9-18.1L49.9-18.1 49.9-7ZM38.5-3.9Q41.75-3.9 43.6-7.15L43.6-7.15 43.6-12.5 40.95-12.5Q34.75-12.5 34.75-7.9L34.75-7.9Q34.75-6 35.7-4.95 36.65-3.9 38.5-3.9L38.5-3.9ZM70.55-5.35L72.8-1.25Q71.4-0.25 69.67 0.25 67.95 0.75 66.15 0.75L66.15 0.75Q62.25 0.7 60.22-1.48 58.2-3.65 58.2-7.9L58.2-7.9 58.2-21.85 54.05-21.85 54.05-26.45 58.2-26.45 58.2-32.3 64.59-33.05 64.59-26.45 70.75-26.45 70.09-21.85 64.59-21.85 64.59-8.05Q64.59-6.1 65.27-5.25 65.95-4.4 67.4-4.4L67.4-4.4Q68.84-4.4 70.55-5.35L70.55-5.35ZM89.84-35.3Q94.49-35.3 97.89-33.2 101.29-31.1 103.12-27.05 104.94-23 104.94-17.3L104.94-17.3Q104.94-11.65 103.09-7.6 101.24-3.55 97.84-1.4 94.44 0.75 89.84 0.75L89.84 0.75Q85.19 0.75 81.79-1.35 78.39-3.45 76.54-7.5 74.69-11.55 74.69-17.25L74.69-17.25Q74.69-22.85 76.54-26.93 78.39-31 81.82-33.15 85.24-35.3 89.84-35.3L89.84-35.3ZM89.84-30.25Q85.84-30.25 83.74-27.13 81.64-24 81.64-17.25L81.64-17.25Q81.64-4.3 89.84-4.3L89.84-4.3Q93.84-4.3 95.92-7.4 97.99-10.5 97.99-17.3L97.99-17.3Q97.99-24.05 95.92-27.15 93.84-30.25 89.84-30.25L89.84-30.25ZM132.09-26.45L132.09 0 126.54 0 126.19-3.7Q124.74-1.45 122.77-0.35 120.79 0.75 118.09 0.75L118.09 0.75Q114.54 0.75 112.62-1.43 110.69-3.6 110.69-7.45L110.69-7.45 110.69-26.45 117.09-26.45 117.09-8.25Q117.09-6 117.87-5.05 118.64-4.1 120.34-4.1L120.34-4.1Q123.39-4.1 125.69-7.85L125.69-7.85 125.69-26.45 132.09-26.45ZM152.69-5.35L154.94-1.25Q153.54-0.25 151.81 0.25 150.09 0.75 148.29 0.75L148.29 0.75Q144.39 0.7 142.36-1.48 140.34-3.65 140.34-7.9L140.34-7.9 140.34-21.85 136.19-21.85 136.19-26.45 140.34-26.45 140.34-32.3 146.74-33.05 146.74-26.45 152.89-26.45 152.24-21.85 146.74-21.85 146.74-8.05Q146.74-6.1 147.41-5.25 148.09-4.4 149.54-4.4L149.54-4.4Q150.99-4.4 152.69-5.35L152.69-5.35Z" opacity="1" transform="matrix(1,0,0,1,0,0)" fill="#000000" class="undefined-text-0" data-fill-palette-color="primary" id="text-0"></path></svg></g></svg></g><g transform="matrix(1,0,0,1,0,123.0869563656347)"><svg viewBox="0 0 395.52000000000004 20.375405795492398" height="20.375405795492398" width="395.52000000000004"><g transform="matrix(1,0,0,1,0,0)"><svg width="395.52000000000004" viewBox="1.6 -36.4 900.6 46.4" height="20.375405795492398" data-palette-color="#fbeaab"><path d="M2.1-34.5L24.9-34.5 24.9-25.8 21.2-25.35Q20.05-26.35 19.35-29.05L19.35-29.05 11.55-29.05 11.55-19.95 18.5-19.95Q19.1-21.45 19.75-22.05L19.75-22.05 22.9-21.7 22.9-12.8 19.75-12.4Q19.1-12.9 18.5-14.5L18.5-14.5 11.55-14.5 11.55-6.2Q14.9-5.45 16.4-4.15L16.4-4.15 15.9 0 2.1 0 1.6-4.15Q2.25-5 4.35-5.8L4.35-5.8 4.35-28.65Q2.3-29.4 1.6-30.35L1.6-30.35 2.1-34.5ZM38.27 0.4Q32.35 0.4 29.5-2.75 26.65-5.9 26.65-12.28 26.65-18.65 29.82-22.03 33-25.4 38.95-25.4 44.9-25.4 47.77-22.4 50.65-19.4 50.65-13.03 50.65-6.65 47.42-3.13 44.2 0.4 38.27 0.4ZM33.85-12.7L33.85-12.7Q33.85-4.7 38.65-4.7L38.65-4.7Q41.1-4.7 42.27-6.53 43.45-8.35 43.45-12.5L43.45-12.5Q43.45-20.3 38.55-20.3L38.55-20.3Q36.15-20.3 35-18.57 33.85-16.85 33.85-12.7ZM68.2-18.85L68.2-18.85Q64.4-18.85 62.95-17.4L62.95-17.4 62.95-5.95Q67-5.2 68.5-3.85L68.5-3.85 68 0 53.7 0 53.2-3.85Q53.9-4.8 55.95-5.55L55.95-5.55 55.95-19.45Q54.2-20.05 53.2-21.15L53.2-21.15 53.7-25Q56.45-25.6 58.65-25.6 60.85-25.6 62.3-25.5L62.3-25.5 62.3-22.35Q63.45-23.7 65.25-24.58 67.05-25.45 68.52-25.45 70-25.45 70.55-25.2L70.55-25.2 70.4-18.7Q69.4-18.85 68.2-18.85ZM89.29-31.3L92.94-31.3 92.94-25 100.09-25 100.09-20.8 92.94-20.8 92.94-8.15Q92.94-6.55 93.39-5.83 93.84-5.1 95.54-5.1 97.24-5.1 99.19-5.85L99.19-5.85 100.69-1.95Q96.84 0 92.82 0 88.79 0 87.37-1.73 85.94-3.45 85.94-6.75L85.94-6.75 85.94-20.8 83.69-20.8 83.14-23.85Q83.94-24.8 86.44-25.75L86.44-25.75Q87.04-29.85 89.29-31.3L89.29-31.3ZM101.84-31.65L102.34-35.5Q105.14-36.15 107.54-36.15 109.94-36.15 111.59-36L111.59-36 111.59-23.5Q112.79-24.3 114.79-24.85 116.79-25.4 118.34-25.4L118.34-25.4Q123.29-25.4 125.19-23 127.09-20.6 127.09-15.7L127.09-15.7 127.09-5.55Q129.04-4.8 129.84-3.85L129.84-3.85 129.34 0 117.84 0 117.34-3.85Q118.04-4.8 120.09-5.55L120.09-5.55 120.09-15.45Q120.09-18.15 119.21-19.07 118.34-20 116.04-20 113.74-20 111.59-18.4L111.59-18.4 111.59-5.55Q113.54-4.8 114.34-3.85L114.34-3.85 113.84 0 102.34 0 101.84-3.85Q102.54-4.8 104.59-5.55L104.59-5.55 104.59-29.95Q102.84-30.55 101.84-31.65L101.84-31.65ZM143.16 0.4Q137.24 0.4 134.39-2.75 131.54-5.9 131.54-12.28 131.54-18.65 134.71-22.03 137.89-25.4 143.84-25.4 149.79-25.4 152.66-22.4 155.54-19.4 155.54-13.03 155.54-6.65 152.31-3.13 149.09 0.4 143.16 0.4ZM138.74-12.7L138.74-12.7Q138.74-4.7 143.54-4.7L143.54-4.7Q145.99-4.7 147.16-6.53 148.34-8.35 148.34-12.5L148.34-12.5Q148.34-20.3 143.44-20.3L143.44-20.3Q141.04-20.3 139.89-18.57 138.74-16.85 138.74-12.7ZM168.08-20.9L168.08-20.9Q164.78-20.9 164.78-18.95L164.78-18.95Q164.78-17.1 168.23-16.2L168.23-16.2 172.18-15.15Q178.28-13.55 178.28-8.1L178.28-8.1Q178.28-4.35 175.66-1.98 173.03 0.4 167.31 0.4 161.58 0.4 158.38-1.2L158.38-1.2Q158.33-1.75 158.33-2.3L158.33-2.3Q158.33-5.05 159.43-7.25L159.43-7.25 163.58-7.25Q164.23-6.05 164.43-4.75L164.43-4.75Q165.43-4.45 167.28-4.45L167.28-4.45Q171.68-4.45 171.68-6.95L171.68-6.95Q171.68-7.75 171.08-8.28 170.48-8.8 168.73-9.3L168.73-9.3 164.78-10.45Q161.73-11.3 160.03-12.98 158.33-14.65 158.33-17.93 158.33-21.2 160.98-23.3 163.63-25.4 168.56-25.4 173.48-25.4 176.88-23.95L176.88-23.95Q176.93-23.45 176.93-22.95L176.93-22.95Q176.93-20.35 175.83-18.15L175.83-18.15 171.73-18.15Q171.08-19.3 170.88-20.55L170.88-20.55Q169.48-20.9 168.08-20.9ZM192.63 0.4L192.63 0.4Q186.63 0.4 183.61-2.8 180.58-6 180.58-12.1L180.58-12.1Q180.58-15.8 181.63-18.48 182.68-21.15 184.48-22.6L184.48-22.6Q187.98-25.4 192.63-25.4 197.28-25.4 199.76-23.03 202.23-20.65 202.23-14.5L202.23-14.5Q202.23-10.9 198.68-10.9L198.68-10.9 187.83-10.9Q188.03-7.75 189.46-6.45 190.88-5.15 193.98-5.15L193.98-5.15Q195.68-5.15 197.23-5.55 198.78-5.95 199.48-6.35L199.48-6.35 200.18-6.75 201.68-2.75Q201.38-2.4 200.81-1.88 200.23-1.35 197.91-0.48 195.58 0.4 192.63 0.4ZM187.88-15.05L195.78-15.35Q195.88-16.05 195.88-17.05 195.88-18.05 195.08-19.18 194.28-20.3 192.31-20.3 190.33-20.3 189.28-19.1 188.23-17.9 187.88-15.05L187.88-15.05ZM246.13 0.3L239.63 0.3 237.08-7.6Q236.28-10 235.83-13.6L235.83-13.6 235.68-14.8 234.98-14.8Q234.48-10.9 233.48-7.65L233.48-7.65 231.13 0.3 224.03 0.3 217.73-19.35Q215.58-20.1 214.78-21.15L214.78-21.15 215.28-25 226.98-25 227.48-21.15Q226.58-20.1 224.43-19.35L224.43-19.35 227.33-6.6 228.03-6.6Q228.58-9.25 229.33-12.05L229.33-12.05 232.73-24.9 238.33-24.9 241.68-12.15 242.93-6.6 243.63-6.6Q245.48-15.05 246.13-17.95L246.13-17.95 246.43-19.35Q244.18-20.15 243.43-21.15L243.43-21.15 243.93-25 255.03-25 255.53-21.15Q254.68-20 252.38-19.25L252.38-19.25 246.13 0.3ZM255.67-31.65L256.17-35.5Q258.97-36.15 261.37-36.15 263.77-36.15 265.42-36L265.42-36 265.42-23.5Q266.62-24.3 268.62-24.85 270.62-25.4 272.17-25.4L272.17-25.4Q277.12-25.4 279.02-23 280.92-20.6 280.92-15.7L280.92-15.7 280.92-5.55Q282.87-4.8 283.67-3.85L283.67-3.85 283.17 0 271.67 0 271.17-3.85Q271.87-4.8 273.92-5.55L273.92-5.55 273.92-15.45Q273.92-18.15 273.05-19.07 272.17-20 269.87-20 267.57-20 265.42-18.4L265.42-18.4 265.42-5.55Q267.37-4.8 268.17-3.85L268.17-3.85 267.67 0 256.17 0 255.67-3.85Q256.37-4.8 258.42-5.55L258.42-5.55 258.42-29.95Q256.67-30.55 255.67-31.65L255.67-31.65ZM297 0.4Q291.07 0.4 288.22-2.75 285.37-5.9 285.37-12.28 285.37-18.65 288.55-22.03 291.72-25.4 297.67-25.4 303.62-25.4 306.5-22.4 309.37-19.4 309.37-13.03 309.37-6.65 306.15-3.13 302.92 0.4 297 0.4ZM292.57-12.7L292.57-12.7Q292.57-4.7 297.37-4.7L297.37-4.7Q299.82-4.7 301-6.53 302.17-8.35 302.17-12.5L302.17-12.5Q302.17-20.3 297.27-20.3L297.27-20.3Q294.87-20.3 293.72-18.57 292.57-16.85 292.57-12.7ZM322.57-31.65L323.07-35.5Q325.87-36.15 328.27-36.15 330.67-36.15 332.32-36L332.32-36 332.32-5.55Q334.27-4.8 335.07-3.85L335.07-3.85 334.57 0 323.07 0 322.57-3.85Q323.27-4.8 325.32-5.55L325.32-5.55 325.32-29.95Q323.57-30.55 322.57-31.65L322.57-31.65ZM348.69 0.4Q342.76 0.4 339.91-2.75 337.06-5.9 337.06-12.28 337.06-18.65 340.24-22.03 343.41-25.4 349.36-25.4 355.31-25.4 358.19-22.4 361.06-19.4 361.06-13.03 361.06-6.65 357.84-3.13 354.61 0.4 348.69 0.4ZM344.26-12.7L344.26-12.7Q344.26-4.7 349.06-4.7L349.06-4.7Q351.51-4.7 352.69-6.53 353.86-8.35 353.86-12.5L353.86-12.5Q353.86-20.3 348.96-20.3L348.96-20.3Q346.56-20.3 345.41-18.57 344.26-16.85 344.26-12.7ZM387.16-19.2L378.91 0.3 373.41 0.3 365.21-19.2Q362.71-20 361.86-21.15L361.86-21.15 362.36-25 373.86-25 374.36-21.15Q373.71-20.35 372.21-19.7L372.21-19.7 374.91-12.15Q375.81-9.8 376.21-7.5L376.21-7.5 376.31-6.8 377.01-6.8Q377.41-9.3 378.41-12.05L378.41-12.05 381.06-19.45Q379.21-20.15 378.46-21.15L378.46-21.15 378.96-25 389.96-25 390.46-21.15Q389.56-20 387.16-19.2L387.16-19.2ZM404.11 0.4L404.11 0.4Q398.11 0.4 395.08-2.8 392.06-6 392.06-12.1L392.06-12.1Q392.06-15.8 393.11-18.48 394.16-21.15 395.96-22.6L395.96-22.6Q399.46-25.4 404.11-25.4 408.76-25.4 411.23-23.03 413.71-20.65 413.71-14.5L413.71-14.5Q413.71-10.9 410.16-10.9L410.16-10.9 399.31-10.9Q399.51-7.75 400.93-6.45 402.36-5.15 405.46-5.15L405.46-5.15Q407.16-5.15 408.71-5.55 410.26-5.95 410.96-6.35L410.96-6.35 411.66-6.75 413.16-2.75Q412.86-2.4 412.28-1.88 411.71-1.35 409.38-0.48 407.06 0.4 404.11 0.4ZM399.36-15.05L407.26-15.35Q407.36-16.05 407.36-17.05 407.36-18.05 406.56-19.18 405.76-20.3 403.78-20.3 401.81-20.3 400.76-19.1 399.71-17.9 399.36-15.05L399.36-15.05ZM427.5-21.15L428-25Q430.75-25.6 432.95-25.6 435.15-25.6 436.6-25.5L436.6-25.5 436.6-23Q437.85-24.05 439.93-24.73 442-25.4 443.9-25.4L443.9-25.4Q448.8-25.4 450.78-23.1 452.75-20.8 452.75-15.15L452.75-15.15 452.75-5.55Q454.7-4.8 455.5-3.85L455.5-3.85 455 0 443.5 0 443-3.85Q443.7-4.8 445.75-5.55L445.75-5.55 445.75-15.45Q445.75-18.15 444.88-19.07 444-20 441.75-20 439.5-20 437.25-18.4L437.25-18.4 437.25-5.55Q439.2-4.8 440-3.85L440-3.85 439.5 0 428 0 427.5-3.85Q428.2-4.8 430.25-5.55L430.25-5.55 430.25-19.45Q428.5-20.05 427.5-21.15L427.5-21.15ZM469.25 0.4L469.25 0.4Q463.25 0.4 460.23-2.8 457.2-6 457.2-12.1L457.2-12.1Q457.2-15.8 458.25-18.48 459.3-21.15 461.1-22.6L461.1-22.6Q464.6-25.4 469.25-25.4 473.9-25.4 476.38-23.03 478.85-20.65 478.85-14.5L478.85-14.5Q478.85-10.9 475.3-10.9L475.3-10.9 464.45-10.9Q464.65-7.75 466.08-6.45 467.5-5.15 470.6-5.15L470.6-5.15Q472.3-5.15 473.85-5.55 475.4-5.95 476.1-6.35L476.1-6.35 476.8-6.75 478.3-2.75Q478-2.4 477.43-1.88 476.85-1.35 474.53-0.48 472.2 0.4 469.25 0.4ZM464.5-15.05L472.4-15.35Q472.5-16.05 472.5-17.05 472.5-18.05 471.7-19.18 470.9-20.3 468.93-20.3 466.95-20.3 465.9-19.1 464.85-17.9 464.5-15.05L464.5-15.05ZM511 0.3L504.5 0.3 501.95-7.6Q501.15-10 500.7-13.6L500.7-13.6 500.55-14.8 499.85-14.8Q499.35-10.9 498.35-7.65L498.35-7.65 496 0.3 488.9 0.3 482.6-19.35Q480.45-20.1 479.65-21.15L479.65-21.15 480.15-25 491.85-25 492.35-21.15Q491.45-20.1 489.3-19.35L489.3-19.35 492.2-6.6 492.9-6.6Q493.45-9.25 494.2-12.05L494.2-12.05 497.6-24.9 503.2-24.9 506.55-12.15 507.8-6.6 508.5-6.6Q510.35-15.05 511-17.95L511-17.95 511.3-19.35Q509.05-20.15 508.3-21.15L508.3-21.15 508.8-25 519.9-25 520.4-21.15Q519.55-20 517.25-19.25L517.25-19.25 511 0.3ZM535.59-24.55L535.59-25.95Q535.59-31.15 537.84-33.77 540.09-36.4 544.99-36.4 549.89-36.4 553.49-33.75L553.49-33.75Q553.54-33.4 553.54-32.73 553.54-32.05 553.19-30.5 552.84-28.95 552.24-28L552.24-28 548.04-28Q547.14-29.7 547.09-31.2L547.09-31.2Q546.49-31.3 546.09-31.3L546.09-31.3Q544.19-31.3 543.39-30.25 542.59-29.2 542.59-26.45L542.59-26.45 542.59-24.55 550.24-24.55 550.24-19.95 542.59-19.95 542.59-5.8Q546.34-5.05 547.69-3.85L547.69-3.85 547.19 0 533.34 0 532.84-3.85Q533.54-4.8 535.59-5.55L535.59-5.55 535.59-19.95 533.39-19.95 532.84-23.4Q533.94-24.4 535.59-24.55L535.59-24.55ZM563.26 0.4Q557.34 0.4 554.49-2.75 551.64-5.9 551.64-12.28 551.64-18.65 554.81-22.03 557.99-25.4 563.94-25.4 569.89-25.4 572.76-22.4 575.64-19.4 575.64-13.03 575.64-6.65 572.41-3.13 569.19 0.4 563.26 0.4ZM558.84-12.7L558.84-12.7Q558.84-4.7 563.64-4.7L563.64-4.7Q566.09-4.7 567.26-6.53 568.44-8.35 568.44-12.5L568.44-12.5Q568.44-20.3 563.54-20.3L563.54-20.3Q561.14-20.3 559.99-18.57 558.84-16.85 558.84-12.7ZM589.76 0.4Q583.84 0.4 580.99-2.75 578.14-5.9 578.14-12.28 578.14-18.65 581.31-22.03 584.49-25.4 590.44-25.4 596.39-25.4 599.26-22.4 602.14-19.4 602.14-13.03 602.14-6.65 598.91-3.13 595.69 0.4 589.76 0.4ZM585.34-12.7L585.34-12.7Q585.34-4.7 590.14-4.7L590.14-4.7Q592.59-4.7 593.76-6.53 594.94-8.35 594.94-12.5L594.94-12.5Q594.94-20.3 590.04-20.3L590.04-20.3Q587.64-20.3 586.49-18.57 585.34-16.85 585.34-12.7ZM617.18-31.65L617.68-35.5Q620.53-36.15 623.13-36.15 625.73-36.15 627.58-36L627.58-36 627.58-6Q629.08-5.75 630.33-5.15L630.33-5.15 630.33-1.2Q627.33 0.4 622.73 0.4L622.73 0.4Q622.23 0.15 621.76-0.5 621.28-1.15 621.23-1.75L621.23-1.75Q620.13-0.85 618.38-0.23 616.63 0.4 614.93 0.4L614.93 0.4Q609.53 0.4 607.11-2.53 604.68-5.45 604.68-12.1L604.68-12.1Q604.68-19.65 608.38-22.7L608.38-22.7Q611.63-25.4 616.38-25.4L616.38-25.4Q618.48-25.4 620.58-24.9L620.58-24.9 620.58-29.85Q618.28-30.5 617.18-31.65L617.18-31.65ZM615.98-4.7L615.98-4.7Q618.83-4.7 620.58-6.4L620.58-6.4 620.58-19.8Q618.53-20.3 616.23-20.3 613.93-20.3 612.91-18.28 611.88-16.25 611.88-12.23 611.88-8.2 612.88-6.45 613.88-4.7 615.98-4.7ZM655.68 0.4L655.68 0.4Q649.68 0.4 646.65-2.8 643.63-6 643.63-12.1L643.63-12.1Q643.63-15.8 644.68-18.48 645.73-21.15 647.53-22.6L647.53-22.6Q651.03-25.4 655.68-25.4 660.33-25.4 662.8-23.03 665.28-20.65 665.28-14.5L665.28-14.5Q665.28-10.9 661.73-10.9L661.73-10.9 650.88-10.9Q651.08-7.75 652.5-6.45 653.93-5.15 657.03-5.15L657.03-5.15Q658.73-5.15 660.28-5.55 661.83-5.95 662.53-6.35L662.53-6.35 663.23-6.75 664.73-2.75Q664.43-2.4 663.85-1.88 663.28-1.35 660.95-0.48 658.63 0.4 655.68 0.4ZM650.93-15.05L658.83-15.35Q658.93-16.05 658.93-17.05 658.93-18.05 658.13-19.18 657.33-20.3 655.35-20.3 653.38-20.3 652.33-19.1 651.28-17.9 650.93-15.05L650.93-15.05ZM680.53-15.2L681.23-15.2Q681.58-16.55 682.68-18.3L682.68-18.3 683.58-19.7Q682.13-20.35 681.53-21.15L681.53-21.15 682.03-25 693.03-25 693.53-21.15Q692.53-19.8 689.48-19L689.48-19 685.08-12.85 689.78-5.9Q692.53-5.15 693.58-3.85L693.58-3.85 693.08 0 681.58 0 681.08-3.85Q681.58-4.5 682.93-5.15L682.93-5.15 681.68-7.2Q680.83-8.6 680.38-10.15L680.38-10.15 680.23-10.65 679.53-10.65Q679.08-8.9 678.08-7.3L678.08-7.3 676.88-5.4Q678.58-4.65 679.18-3.85L679.18-3.85 678.68 0 667.68 0 667.18-3.85Q668.13-5.1 670.93-5.9L670.93-5.9 675.68-12.85 671.28-19Q668.28-19.8 667.23-21.15L667.23-21.15 667.73-25 679.23-25 679.73-21.15Q679.03-20.35 678.03-19.9L678.03-19.9 679.08-18.4Q680.08-16.9 680.53-15.2L680.53-15.2ZM694.97-21.15L695.47-25Q698.22-25.6 700.42-25.6 702.62-25.6 704.07-25.5L704.07-25.5 704.07-23.05Q707.42-25.4 711.22-25.4L711.22-25.4Q716.22-25.4 718.47-22.55 720.72-19.7 720.72-13.05L720.72-13.05Q720.72-9.5 719.67-6.8 718.62-4.1 716.82-2.6L716.82-2.6Q713.37 0.4 708.62 0.4L708.62 0.4Q706.57 0.4 704.72 0L704.72 0 704.72 4.3Q707.67 5.1 708.52 6.15L708.52 6.15 708.02 10 695.47 10 694.97 6.15Q695.62 5.25 697.72 4.45L697.72 4.45 697.72-19.45Q695.97-20.05 694.97-21.15L694.97-21.15ZM708.12-4.7L708.12-4.7Q710.62-4.7 712.07-6.93 713.52-9.15 713.52-13.08 713.52-17 712.72-18.45 711.92-19.9 709.82-19.9L709.82-19.9Q706.62-19.9 704.72-18.4L704.72-18.4 704.72-5.1Q706.27-4.7 708.12-4.7ZM735.32 0.4L735.32 0.4Q729.32 0.4 726.3-2.8 723.27-6 723.27-12.1L723.27-12.1Q723.27-15.8 724.32-18.48 725.37-21.15 727.17-22.6L727.17-22.6Q730.67-25.4 735.32-25.4 739.97-25.4 742.45-23.03 744.92-20.65 744.92-14.5L744.92-14.5Q744.92-10.9 741.37-10.9L741.37-10.9 730.52-10.9Q730.72-7.75 732.15-6.45 733.57-5.15 736.67-5.15L736.67-5.15Q738.37-5.15 739.92-5.55 741.47-5.95 742.17-6.35L742.17-6.35 742.87-6.75 744.37-2.75Q744.07-2.4 743.5-1.88 742.92-1.35 740.6-0.48 738.27 0.4 735.32 0.4ZM730.57-15.05L738.47-15.35Q738.57-16.05 738.57-17.05 738.57-18.05 737.77-19.18 736.97-20.3 735-20.3 733.02-20.3 731.97-19.1 730.92-17.9 730.57-15.05L730.57-15.05ZM762.47-18.85L762.47-18.85Q758.67-18.85 757.22-17.4L757.22-17.4 757.22-5.95Q761.27-5.2 762.77-3.85L762.77-3.85 762.27 0 747.97 0 747.47-3.85Q748.17-4.8 750.22-5.55L750.22-5.55 750.22-19.45Q748.47-20.05 747.47-21.15L747.47-21.15 747.97-25Q750.72-25.6 752.92-25.6 755.12-25.6 756.57-25.5L756.57-25.5 756.57-22.35Q757.72-23.7 759.52-24.58 761.32-25.45 762.79-25.45 764.27-25.45 764.82-25.2L764.82-25.2 764.67-18.7Q763.67-18.85 762.47-18.85ZM766.97-21.15L767.47-25Q770.27-25.65 772.67-25.65 775.07-25.65 776.72-25.5L776.72-25.5 776.72-5.55Q778.67-4.8 779.47-3.85L779.47-3.85 778.97 0 767.47 0 766.97-3.85Q767.67-4.8 769.72-5.55L769.72-5.55 769.72-19.45Q767.97-20.05 766.97-21.15L766.97-21.15ZM773.14-28.45Q768.97-28.45 768.97-32.23 768.97-36 773.14-36 777.32-36 777.32-32.23 777.32-28.45 773.14-28.45ZM793.46 0.4L793.46 0.4Q787.46 0.4 784.44-2.8 781.41-6 781.41-12.1L781.41-12.1Q781.41-15.8 782.46-18.48 783.51-21.15 785.31-22.6L785.31-22.6Q788.81-25.4 793.46-25.4 798.11-25.4 800.59-23.03 803.06-20.65 803.06-14.5L803.06-14.5Q803.06-10.9 799.51-10.9L799.51-10.9 788.66-10.9Q788.86-7.75 790.29-6.45 791.71-5.15 794.81-5.15L794.81-5.15Q796.51-5.15 798.06-5.55 799.61-5.95 800.31-6.35L800.31-6.35 801.01-6.75 802.51-2.75Q802.21-2.4 801.64-1.88 801.06-1.35 798.74-0.48 796.41 0.4 793.46 0.4ZM788.71-15.05L796.61-15.35Q796.71-16.05 796.71-17.05 796.71-18.05 795.91-19.18 795.11-20.3 793.14-20.3 791.16-20.3 790.11-19.1 789.06-17.9 788.71-15.05L788.71-15.05ZM805.61-21.15L806.11-25Q808.86-25.6 811.06-25.6 813.26-25.6 814.71-25.5L814.71-25.5 814.71-23Q815.96-24.05 818.04-24.73 820.11-25.4 822.01-25.4L822.01-25.4Q826.91-25.4 828.89-23.1 830.86-20.8 830.86-15.15L830.86-15.15 830.86-5.55Q832.81-4.8 833.61-3.85L833.61-3.85 833.11 0 821.61 0 821.11-3.85Q821.81-4.8 823.86-5.55L823.86-5.55 823.86-15.45Q823.86-18.15 822.99-19.07 822.11-20 819.86-20 817.61-20 815.36-18.4L815.36-18.4 815.36-5.55Q817.31-4.8 818.11-3.85L818.11-3.85 817.61 0 806.11 0 805.61-3.85Q806.31-4.8 808.36-5.55L808.36-5.55 808.36-19.45Q806.61-20.05 805.61-21.15L805.61-21.15ZM847.11-20.3L847.11-20.3Q842.51-20.3 842.51-12.4L842.51-12.4Q842.51-8.4 843.78-6.83 845.06-5.25 847.46-5.25L847.46-5.25Q851.26-5.25 854.16-5.95L854.16-5.95 855.66-2.1Q854.06-1.05 851.36-0.33 848.66 0.4 846.11 0.4L846.11 0.4Q835.31 0.4 835.31-12.1L835.31-12.1Q835.31-19.4 839.06-22.6L839.06-22.6Q842.41-25.4 847.21-25.4 852.01-25.4 855.21-23.6L855.21-23.6Q855.26-23.1 855.26-22.65L855.26-22.65Q855.26-19.8 853.96-17.25L853.96-17.25 849.56-17.25Q848.86-18.5 848.71-20.25L848.71-20.25Q848.11-20.3 847.11-20.3ZM869.86 0.4L869.86 0.4Q863.86 0.4 860.83-2.8 857.81-6 857.81-12.1L857.81-12.1Q857.81-15.8 858.86-18.48 859.91-21.15 861.71-22.6L861.71-22.6Q865.21-25.4 869.86-25.4 874.51-25.4 876.98-23.03 879.46-20.65 879.46-14.5L879.46-14.5Q879.46-10.9 875.91-10.9L875.91-10.9 865.06-10.9Q865.26-7.75 866.68-6.45 868.11-5.15 871.21-5.15L871.21-5.15Q872.91-5.15 874.46-5.55 876.01-5.95 876.71-6.35L876.71-6.35 877.41-6.75 878.91-2.75Q878.61-2.4 878.03-1.88 877.46-1.35 875.13-0.48 872.81 0.4 869.86 0.4ZM865.11-15.05L873.01-15.35Q873.11-16.05 873.11-17.05 873.11-18.05 872.31-19.18 871.51-20.3 869.53-20.3 867.56-20.3 866.51-19.1 865.46-17.9 865.11-15.05L865.11-15.05ZM892-20.9L892-20.9Q888.7-20.9 888.7-18.95L888.7-18.95Q888.7-17.1 892.15-16.2L892.15-16.2 896.1-15.15Q902.2-13.55 902.2-8.1L902.2-8.1Q902.2-4.35 899.58-1.98 896.95 0.4 891.23 0.4 885.5 0.4 882.3-1.2L882.3-1.2Q882.25-1.75 882.25-2.3L882.25-2.3Q882.25-5.05 883.35-7.25L883.35-7.25 887.5-7.25Q888.15-6.05 888.35-4.75L888.35-4.75Q889.35-4.45 891.2-4.45L891.2-4.45Q895.6-4.45 895.6-6.95L895.6-6.95Q895.6-7.75 895-8.28 894.4-8.8 892.65-9.3L892.65-9.3 888.7-10.45Q885.65-11.3 883.95-12.98 882.25-14.65 882.25-17.93 882.25-21.2 884.9-23.3 887.55-25.4 892.48-25.4 897.4-25.4 900.8-23.95L900.8-23.95Q900.85-23.45 900.85-22.95L900.85-22.95Q900.85-20.35 899.75-18.15L899.75-18.15 895.65-18.15Q895-19.3 894.8-20.55L894.8-20.55Q893.4-20.9 892-20.9Z" opacity="1" transform="matrix(1,0,0,1,0,0)" fill="#000000" class="undefined-text-1" data-fill-palette-color="secondary" id="text-1"></path></svg></g></svg></g></svg></g></svg></g></svg></g></svg><rect width="395.52" height="142.7486190657981" fill="none" stroke="none" visibility="hidden"></rect></g></svg></g></svg>